<?xml version="1.0" encoding="UTF-8"?>
<svg id="Calque_2" data-name="Calque 2" xmlns="http://www.w3.org/2000/svg" viewBox="0 0 272.51 118.06">
  <defs>
    <style>
      .cls-1 {
        fill: #fff;
        stroke-width: 0px;
      }
    </style>
  </defs>
  <g id="Calque_1-2" data-name="Calque 1-2">
    <g>
      <path class="cls-1" d="M66.58,96.69c-2.35.41-4.83.55-7.73.55-7.6,0-11.74-3.59-12.43-10.77-3.87,7.87-11.6,11.88-23.2,11.88S0,91.57,0,78.45c0-14.23,11.05-18.79,23.48-21.13l22.79-4.42c0-6.77-.28-9.94-2.35-12.57-1.8-2.76-6.49-4.56-12.57-4.56-12.02,0-16.85,4.42-16.85,14.92l-12.15-1.66c.41-8.29,3.18-14.5,8.56-17.96,4.97-3.31,12.29-5.11,21.13-5.11,17.27,0,26.24,7.73,26.24,22.79v33.01c0,4.01.14,5.25,4.01,5.25,1.1,0,2.49-.14,4.01-.55l.28,10.22h0ZM46.28,62.16l-20.86,4.56c-8.01,1.79-12.71,4.01-12.71,11.6,0,6.22,5.39,10.08,12.43,10.08,14.36,0,21.13-7.18,21.13-17.82v-8.43h0Z"/>
      <path class="cls-1" d="M180.52,96.69h-12.71v-40.61c0-8.15-.14-11.88-4.14-16.02-3.32-3.32-7.32-3.87-11.6-3.87-4.01,0-7.46,1.24-10.22,3.73-4.01,3.45-6.35,8.56-6.35,18.65v38.12h-12.71v-40.61c0-8.15-.14-11.88-4.14-16.02-3.31-3.32-7.6-3.87-11.6-3.87s-7.32,1.24-10.22,3.73c-3.87,3.45-6.35,8.56-6.35,18.65v38.12h-12.29V27.62h12.29v10.5c.97-2.62,2.76-4.97,5.11-6.91,4.28-3.45,9.67-5.25,16.16-5.25,10.91,0,18.78,5.25,22.1,14.64,1.52-3.73,3.45-6.49,6.63-9.39,3.87-3.32,8.43-5.25,16.16-5.25,15.47,0,23.89,8.84,23.89,25.97v44.75h0Z"/>
      <path class="cls-1" d="M196.96,0h12.57v64.78c0,14.92,11.33,22.51,25.14,22.51s25.28-7.6,25.28-22.51V0h12.57v64.78c0,21.69-13.4,33.56-37.85,33.56s-37.71-11.88-37.71-33.56V0h0Z"/>
    </g>
    <g>
      <path class="cls-1" d="M10,114.14h-5.27l-1.37,3.71h-1.7l4.86-12.42h1.7l4.84,12.42h-1.69l-1.38-3.71h0ZM9.47,112.72l-1.4-3.74c-.28-.75-.51-1.42-.71-2h-.02c-.16.51-.39,1.17-.69,2l-1.38,3.74h4.21-.01Z"/>
      <path class="cls-1" d="M14.29,105.43h1.6v1.88h-1.6v-1.88ZM14.29,108.98h1.6v8.87h-1.6v-8.87Z"/>
      <path class="cls-1" d="M25.45,117.85h-1.72l-1.47-2.09c-.25-.37-.5-.76-.76-1.21l-.2-.3c-.41.66-.73,1.17-.98,1.51l-1.47,2.09h-1.72l3.32-4.63-3.05-4.24h1.72l1.44,2,.75,1.15.16-.23c.14-.23.34-.53.6-.92l1.4-2h1.74l-3.09,4.24,3.34,4.63h-.01Z"/>
      <path class="cls-1" d="M78.17,105.43h2.32l2.63,7.03c.51,1.37.94,2.55,1.28,3.6h.02c.39-1.19.82-2.38,1.26-3.6l2.63-7.03h2.32v12.42h-1.58v-7.51c0-.3,0-.75.02-1.29l.07-1.54h-.02c-.46,1.33-.8,2.29-1.01,2.84l-2.89,7.51h-1.63l-2.89-7.51c-.16-.41-.5-1.35-1.01-2.84h-.02l.05,1.54c.02.55.04.99.04,1.29v7.51h-1.58v-12.42h0Z"/>
      <path class="cls-1" d="M101.14,117.85c-.3.05-.62.07-.99.07-.98,0-1.51-.46-1.6-1.38-.5,1.01-1.49,1.53-2.98,1.53s-2.98-.87-2.98-2.56c0-1.83,1.42-2.41,3.02-2.71l2.93-.57c0-.87-.04-1.28-.3-1.62-.23-.36-.83-.59-1.61-.59-1.54,0-2.17.57-2.17,1.92l-1.56-.21c.05-1.07.41-1.86,1.1-2.31.64-.43,1.58-.66,2.71-.66,2.22,0,3.37.99,3.37,2.93v4.24c0,.51.02.67.51.67.14,0,.32-.02.51-.07l.04,1.31h0ZM98.53,113.41l-2.68.59c-1.03.23-1.63.51-1.63,1.49,0,.8.69,1.3,1.6,1.3,1.85,0,2.72-.92,2.72-2.29v-1.08h-.01Z"/>
      <path class="cls-1" d="M107.55,110.27c-.07-.02-.21-.02-.41-.02-1.81,0-2.91.62-2.91,3.39v4.21h-1.6v-8.87h1.6v1.56c.25-.87,1.35-1.65,2.77-1.76.09-.02.28-.02.59-.02l-.04,1.51h0Z"/>
      <path class="cls-1" d="M109.5,114.8c0,1.24.87,2.01,2.27,2.01,1.47,0,2.18-.5,2.18-1.44-.07-.82-.8-.98-2.15-1.3l-.71-.16c-1.76-.48-2.77-.85-2.86-2.56,0-1.77,1.62-2.59,3.28-2.59,2.06,0,3.55.87,3.71,2.91l-1.49.23c-.02-1.21-.82-1.88-2.24-1.88-.89,0-1.77.44-1.77,1.22.09.78.8.98,2.13,1.28l.21.05c.76.16,1.35.32,1.79.48.91.3,1.6.96,1.6,2.22,0,.99-.35,1.7-1.05,2.15-.69.43-1.56.64-2.61.64-2.08,0-3.76-.98-3.76-3.12l1.46-.14h.01Z"/>
      <path class="cls-1" d="M125.2,113.89h-6.73c.05,1.97.87,2.89,2.52,2.89,1.51,0,2.32-.64,2.54-1.99l1.54.12c-.41,2.06-1.79,3.14-4.06,3.14-1.38,0-2.45-.43-3.19-1.29-.73-.8-1.08-1.93-1.08-3.37,0-1.33.39-2.47,1.12-3.3.78-.87,1.86-1.33,3.14-1.33,1.42,0,2.75.62,3.46,1.76.48.76.76,1.86.76,3,0,.16,0,.28-.02.37ZM118.49,112.59h5.08c-.02-.5-.2-1.17-.48-1.58-.44-.66-1.1-.96-2.08-.96s-1.74.37-2.09.96c-.28.5-.41,1.06-.43,1.58Z"/>
      <path class="cls-1" d="M127.01,105.43h1.6v1.88h-1.6v-1.88ZM127.01,108.98h1.6v8.87h-1.6v-8.87Z"/>
      <path class="cls-1" d="M130.94,105.43h1.6v12.42h-1.6v-12.42Z"/>
      <path class="cls-1" d="M134.88,105.43h1.6v12.42h-1.6v-12.42Z"/>
      <path class="cls-1" d="M146.77,113.89h-6.73c.05,1.97.87,2.89,2.52,2.89,1.51,0,2.32-.64,2.54-1.99l1.54.12c-.41,2.06-1.79,3.14-4.06,3.14-1.38,0-2.45-.43-3.19-1.29-.73-.8-1.08-1.93-1.08-3.37,0-1.33.39-2.47,1.12-3.3.78-.87,1.86-1.33,3.14-1.33,1.42,0,2.75.62,3.46,1.76.48.76.76,1.86.76,3,0,.16,0,.28-.02.37h0ZM140.06,112.59h5.08c-.02-.5-.2-1.17-.48-1.58-.44-.66-1.1-.96-2.08-.96s-1.74.37-2.09.96c-.28.5-.41,1.06-.43,1.58h0Z"/>
      <path class="cls-1" d="M196.95,105.43h1.62v8.32c0,1.92,1.46,2.89,3.23,2.89s3.25-.98,3.25-2.89v-8.32h1.61v8.32c0,2.79-1.72,4.31-4.86,4.31s-4.84-1.53-4.84-4.31v-8.32h0Z"/>
      <path class="cls-1" d="M216.59,117.85h-1.65v-5.18c0-1.06-.02-1.49-.53-2.06-.44-.44-.92-.51-1.58-.51-.59,0-1.12.2-1.6.6-.48.39-.71,1.14-.71,2.25v4.9h-1.6v-8.87h1.6v1.37c.46-1.05,1.37-1.58,2.73-1.58,1.15,0,2,.3,2.64.99.66.76.69,1.61.69,2.82v5.27h.01Z"/>
      <path class="cls-1" d="M218.84,105.43h1.6v1.88h-1.6v-1.88ZM218.84,108.98h1.6v8.87h-1.6v-8.87Z"/>
      <path class="cls-1" d="M221.74,108.98h1.7l1.58,4.6c.2.51.48,1.46.89,2.8.32-1.07.62-2.01.91-2.8l1.6-4.6h1.67l-3.32,8.87h-1.7l-3.32-8.87h0Z"/>
      <path class="cls-1" d="M238.96,113.89h-6.73c.05,1.97.87,2.89,2.52,2.89,1.51,0,2.33-.64,2.54-1.99l1.54.12c-.41,2.06-1.79,3.14-4.06,3.14-1.38,0-2.45-.43-3.19-1.29-.73-.8-1.08-1.93-1.08-3.37,0-1.33.39-2.47,1.12-3.3.78-.87,1.86-1.33,3.14-1.33,1.42,0,2.75.62,3.46,1.76.48.76.76,1.86.76,3,0,.16,0,.28-.02.37h0ZM232.25,112.59h5.08c-.02-.5-.2-1.17-.48-1.58-.44-.66-1.1-.96-2.08-.96s-1.74.37-2.09.96c-.28.5-.41,1.06-.43,1.58h0Z"/>
      <path class="cls-1" d="M245.69,110.27c-.07-.02-.21-.02-.41-.02-1.81,0-2.91.62-2.91,3.39v4.21h-1.6v-8.87h1.6v1.56c.25-.87,1.35-1.65,2.77-1.76.09-.02.28-.02.59-.02l-.04,1.51Z"/>
      <path class="cls-1" d="M247.64,114.8c0,1.24.87,2.01,2.27,2.01,1.47,0,2.18-.5,2.18-1.44-.07-.82-.8-.98-2.15-1.3l-.71-.16c-1.76-.48-2.77-.85-2.86-2.56,0-1.77,1.62-2.59,3.28-2.59,2.06,0,3.55.87,3.71,2.91l-1.49.23c-.02-1.21-.82-1.88-2.24-1.88-.89,0-1.78.44-1.78,1.22.09.78.8.98,2.13,1.28l.21.05c.76.16,1.35.32,1.79.48.91.3,1.6.96,1.6,2.22,0,.99-.35,1.7-1.05,2.15-.69.43-1.56.64-2.61.64-2.08,0-3.76-.98-3.76-3.12l1.46-.14h.02Z"/>
      <path class="cls-1" d="M255.39,105.43h1.6v1.88h-1.6v-1.88h0ZM255.39,108.98h1.6v8.87h-1.6v-8.87h0Z"/>
      <path class="cls-1" d="M259.82,110.31h-1.28v-1.33h1.28v-2.47h1.58v2.47h1.81v1.33h-1.81v5.5c0,.57.23.69.92.69.21,0,.48-.04.82-.09l.04,1.44c-.39.05-.71.09-.98.09-1.65,0-2.38-.64-2.38-2.08v-5.55Z"/>
      <path class="cls-1" d="M272.47,113.89h-6.73c.05,1.97.87,2.89,2.52,2.89,1.51,0,2.32-.64,2.54-1.99l1.54.12c-.41,2.06-1.79,3.14-4.06,3.14-1.38,0-2.45-.43-3.19-1.29-.73-.8-1.08-1.93-1.08-3.37,0-1.33.39-2.47,1.12-3.3.78-.87,1.86-1.33,3.14-1.33,1.42,0,2.75.62,3.46,1.76.48.76.76,1.86.76,3,0,.16,0,.28-.02.37h0ZM265.76,112.59h5.08c-.02-.5-.2-1.17-.48-1.58-.44-.66-1.1-.96-2.08-.96s-1.74.37-2.09.96c-.28.5-.41,1.06-.43,1.58ZM268.63,105.42h1.79l-1.63,2.25h-1.31l1.15-2.25Z"/>
    </g>
  </g>
</svg>