<?xml version="1.0" encoding="UTF-8" standalone="no"?><!-- Generator: Gravit.io --><svg xmlns="http://www.w3.org/2000/svg" xmlns:xlink="http://www.w3.org/1999/xlink" style="isolation:isolate" viewBox="0 0 1200 500" width="1200pt" height="500pt"><defs><clipPath id="_clipPath_7R6A85v4We2xDCsJ0V5DQr7jFHkZDVTC"><rect width="1200" height="500"/></clipPath></defs><g clip-path="url(#_clipPath_7R6A85v4We2xDCsJ0V5DQr7jFHkZDVTC)"><g><path d=" M 285.7 238 C 285.7 238 274.45 238 274.45 238 C 269.95 283.9 263.65 339.7 184.45 339.7 C 184.45 339.7 148 339.7 148 339.7 C 126.85 339.7 125.95 336.55 125.95 321.7 C 125.95 321.7 125.95 82.75 125.95 82.75 C 125.95 67.45 125.95 61.15 168.25 61.15 C 168.25 61.15 183.1 61.15 183.1 61.15 C 183.1 61.15 183.1 47.65 183.1 47.65 C 166.9 49 126.4 49 107.95 49 C 90.4 49 55.3 49 40 47.65 C 40 47.65 40 61.15 40 61.15 C 40 61.15 50.35 61.15 50.35 61.15 C 85 61.15 85.9 66.1 85.9 82.3 C 85.9 82.3 85.9 318.55 85.9 318.55 C 85.9 334.75 85 339.7 50.35 339.7 C 50.35 339.7 40 339.7 40 339.7 C 40 339.7 40 353.65 40 353.65 C 40 353.65 273.55 353.65 273.55 353.65 C 273.55 353.65 285.7 238 285.7 238 Z " fill="rgb(0,0,0)"/><path d=" M 278.05 47.2 C 276.25 41.8 275.35 40 269.5 40 C 263.65 40 262.3 41.8 260.5 47.2 C 260.5 47.2 188.05 230.8 188.05 230.8 C 184.9 238.45 179.5 252.4 151.6 252.4 C 151.6 252.4 151.6 263.65 151.6 263.65 C 151.6 263.65 221.35 263.65 221.35 263.65 C 221.35 263.65 221.35 252.4 221.35 252.4 C 207.4 252.4 198.85 246.1 198.85 237.1 C 198.85 234.85 199.3 233.95 200.2 230.8 C 200.2 230.8 215.5 192.1 215.5 192.1 C 215.5 192.1 304.6 192.1 304.6 192.1 C 304.6 192.1 322.6 238 322.6 238 C 323.5 239.8 324.4 242.05 324.4 243.4 C 324.4 252.4 307.3 252.4 298.75 252.4 C 298.75 252.4 298.75 263.65 298.75 263.65 C 298.75 263.65 387.4 263.65 387.4 263.65 C 387.4 263.65 387.4 252.4 387.4 252.4 C 387.4 252.4 381.1 252.4 381.1 252.4 C 359.95 252.4 357.7 249.25 354.55 240.25 C 354.55 240.25 278.05 47.2 278.05 47.2 Z  M 260.05 79.15 C 260.05 79.15 300.1 180.85 300.1 180.85 C 300.1 180.85 220 180.85 220 180.85 C 220 180.85 260.05 79.15 260.05 79.15 Z " fill="rgb(0,0,0)"/><path d=" M 638.5 50.35 C 638.5 50.35 364.45 50.35 364.45 50.35 C 364.45 50.35 356.35 151.15 356.35 151.15 C 356.35 151.15 367.15 151.15 367.15 151.15 C 373.45 78.7 380.2 63.85 448.15 63.85 C 456.25 63.85 467.95 63.85 472.45 64.75 C 481.9 66.55 481.9 71.5 481.9 81.85 C 481.9 81.85 481.9 318.1 481.9 318.1 C 481.9 333.4 481.9 339.7 434.65 339.7 C 434.65 339.7 416.65 339.7 416.65 339.7 C 416.65 339.7 416.65 353.65 416.65 353.65 C 435.1 352.3 480.55 352.3 501.25 352.3 C 521.95 352.3 568.3 352.3 586.75 353.65 C 586.75 353.65 586.75 339.7 586.75 339.7 C 586.75 339.7 568.75 339.7 568.75 339.7 C 521.5 339.7 521.5 333.4 521.5 318.1 C 521.5 318.1 521.5 81.85 521.5 81.85 C 521.5 72.85 521.5 66.55 529.6 64.75 C 534.55 63.85 546.7 63.85 555.25 63.85 C 622.75 63.85 629.5 78.7 635.8 151.15 C 635.8 151.15 647.05 151.15 647.05 151.15 C 647.05 151.15 638.5 50.35 638.5 50.35 Z " fill="rgb(0,0,0)"/><path d=" M 879.7 339.25 C 879.7 339.25 868.45 339.25 868.45 339.25 C 857.2 408.1 846.85 440.95 769.9 440.95 C 769.9 440.95 710.5 440.95 710.5 440.95 C 689.35 440.95 688.45 437.8 688.45 422.95 C 688.45 422.95 688.45 303.25 688.45 303.25 C 688.45 303.25 728.5 303.25 728.5 303.25 C 772.15 303.25 777.1 317.65 777.1 355.9 C 777.1 355.9 788.35 355.9 788.35 355.9 C 788.35 355.9 788.35 237.1 788.35 237.1 C 788.35 237.1 777.1 237.1 777.1 237.1 C 777.1 275.35 772.15 289.3 728.5 289.3 C 728.5 289.3 688.45 289.3 688.45 289.3 C 688.45 289.3 688.45 181.75 688.45 181.75 C 688.45 166.9 689.35 163.75 710.5 163.75 C 710.5 163.75 768.1 163.75 768.1 163.75 C 836.95 163.75 848.65 188.5 855.85 251.05 C 855.85 251.05 867.1 251.05 867.1 251.05 C 867.1 251.05 854.5 150.25 854.5 150.25 C 854.5 150.25 602.5 150.25 602.5 150.25 C 602.5 150.25 602.5 163.75 602.5 163.75 C 602.5 163.75 612.85 163.75 612.85 163.75 C 647.5 163.75 648.4 168.7 648.4 184.9 C 648.4 184.9 648.4 419.8 648.4 419.8 C 648.4 436 647.5 440.95 612.85 440.95 C 612.85 440.95 602.5 440.95 602.5 440.95 C 602.5 440.95 602.5 454.9 602.5 454.9 C 602.5 454.9 860.8 454.9 860.8 454.9 C 860.8 454.9 879.7 339.25 879.7 339.25 Z " fill="rgb(0,0,0)"/><path d=" M 1015.15 180.4 C 1015.15 180.4 1076.8 90.4 1076.8 90.4 C 1086.25 76 1101.55 61.6 1141.6 61.15 C 1141.6 61.15 1141.6 47.65 1141.6 47.65 C 1141.6 47.65 1034.5 47.65 1034.5 47.65 C 1034.5 47.65 1034.5 61.15 1034.5 61.15 C 1052.5 61.6 1062.4 71.5 1062.4 81.85 C 1062.4 86.35 1061.5 87.25 1058.35 92.2 C 1058.35 92.2 1007.05 167.8 1007.05 167.8 C 1007.05 167.8 949.45 81.4 949.45 81.4 C 948.55 80.05 946.3 76.45 946.3 74.65 C 946.3 69.25 956.2 61.6 975.1 61.15 C 975.1 61.15 975.1 47.65 975.1 47.65 C 959.8 49 926.95 49 909.85 49 C 895.9 49 868 48.55 851.35 47.65 C 851.35 47.65 851.35 61.15 851.35 61.15 C 851.35 61.15 859.9 61.15 859.9 61.15 C 884.65 61.15 893.2 64.3 901.75 76.9 C 901.75 76.9 984.1 201.55 984.1 201.55 C 984.1 201.55 910.75 310 910.75 310 C 904.45 319 890.95 339.7 845.95 339.7 C 845.95 339.7 845.95 353.65 845.95 353.65 C 845.95 353.65 953.05 353.65 953.05 353.65 C 953.05 353.65 953.05 339.7 953.05 339.7 C 932.35 339.25 924.7 327.1 924.7 319 C 924.7 314.95 926.05 313.15 929.2 308.2 C 929.2 308.2 992.65 214.15 992.65 214.15 C 992.65 214.15 1063.75 321.25 1063.75 321.25 C 1064.65 323.05 1066 324.85 1066 326.2 C 1066 331.6 1056.1 339.25 1036.75 339.7 C 1036.75 339.7 1036.75 353.65 1036.75 353.65 C 1052.5 352.3 1085.35 352.3 1102 352.3 C 1120.9 352.3 1141.6 352.75 1160.5 353.65 C 1160.5 353.65 1160.5 339.7 1160.5 339.7 C 1160.5 339.7 1151.95 339.7 1151.95 339.7 C 1128.55 339.7 1119.1 337.45 1109.65 323.5 C 1109.65 323.5 1015.15 180.4 1015.15 180.4 Z " fill="rgb(0,0,0)"/></g><g><path d=" M 292.7 231 C 292.7 231 281.45 231 281.45 231 C 276.95 276.9 270.65 332.7 191.45 332.7 C 191.45 332.7 155 332.7 155 332.7 C 133.85 332.7 132.95 329.55 132.95 314.7 C 132.95 314.7 132.95 75.75 132.95 75.75 C 132.95 60.45 132.95 54.15 175.25 54.15 C 175.25 54.15 190.1 54.15 190.1 54.15 C 190.1 54.15 190.1 40.65 190.1 40.65 C 173.9 42 133.4 42 114.95 42 C 97.4 42 62.3 42 47 40.65 C 47 40.65 47 54.15 47 54.15 C 47 54.15 57.35 54.15 57.35 54.15 C 92 54.15 92.9 59.1 92.9 75.3 C 92.9 75.3 92.9 311.55 92.9 311.55 C 92.9 327.75 92 332.7 57.35 332.7 C 57.35 332.7 47 332.7 47 332.7 C 47 332.7 47 346.65 47 346.65 C 47 346.65 280.55 346.65 280.55 346.65 C 280.55 346.65 292.7 231 292.7 231 Z " fill="rgb(255,255,255)"/><path d=" M 285.05 40.2 C 283.25 34.8 282.35 33 276.5 33 C 270.65 33 269.3 34.8 267.5 40.2 C 267.5 40.2 195.05 223.8 195.05 223.8 C 191.9 231.45 186.5 245.4 158.6 245.4 C 158.6 245.4 158.6 256.65 158.6 256.65 C 158.6 256.65 228.35 256.65 228.35 256.65 C 228.35 256.65 228.35 245.4 228.35 245.4 C 214.4 245.4 205.85 239.1 205.85 230.1 C 205.85 227.85 206.3 226.95 207.2 223.8 C 207.2 223.8 222.5 185.1 222.5 185.1 C 222.5 185.1 311.6 185.1 311.6 185.1 C 311.6 185.1 329.6 231 329.6 231 C 330.5 232.8 331.4 235.05 331.4 236.4 C 331.4 245.4 314.3 245.4 305.75 245.4 C 305.75 245.4 305.75 256.65 305.75 256.65 C 305.75 256.65 394.4 256.65 394.4 256.65 C 394.4 256.65 394.4 245.4 394.4 245.4 C 394.4 245.4 388.1 245.4 388.1 245.4 C 366.95 245.4 364.7 242.25 361.55 233.25 C 361.55 233.25 285.05 40.2 285.05 40.2 Z  M 267.05 72.15 C 267.05 72.15 307.1 173.85 307.1 173.85 C 307.1 173.85 227 173.85 227 173.85 C 227 173.85 267.05 72.15 267.05 72.15 Z " fill="rgb(255,255,255)"/><path d=" M 645.5 43.35 C 645.5 43.35 371.45 43.35 371.45 43.35 C 371.45 43.35 363.35 144.15 363.35 144.15 C 363.35 144.15 374.15 144.15 374.15 144.15 C 380.45 71.7 387.2 56.85 455.15 56.85 C 463.25 56.85 474.95 56.85 479.45 57.75 C 488.9 59.55 488.9 64.5 488.9 74.85 C 488.9 74.85 488.9 311.1 488.9 311.1 C 488.9 326.4 488.9 332.7 441.65 332.7 C 441.65 332.7 423.65 332.7 423.65 332.7 C 423.65 332.7 423.65 346.65 423.65 346.65 C 442.1 345.3 487.55 345.3 508.25 345.3 C 528.95 345.3 575.3 345.3 593.75 346.65 C 593.75 346.65 593.75 332.7 593.75 332.7 C 593.75 332.7 575.75 332.7 575.75 332.7 C 528.5 332.7 528.5 326.4 528.5 311.1 C 528.5 311.1 528.5 74.85 528.5 74.85 C 528.5 65.85 528.5 59.55 536.6 57.75 C 541.55 56.85 553.7 56.85 562.25 56.85 C 629.75 56.85 636.5 71.7 642.8 144.15 C 642.8 144.15 654.05 144.15 654.05 144.15 C 654.05 144.15 645.5 43.35 645.5 43.35 Z " fill="rgb(255,255,255)"/><path d=" M 886.7 332.25 C 886.7 332.25 875.45 332.25 875.45 332.25 C 864.2 401.1 853.85 433.95 776.9 433.95 C 776.9 433.95 717.5 433.95 717.5 433.95 C 696.35 433.95 695.45 430.8 695.45 415.95 C 695.45 415.95 695.45 296.25 695.45 296.25 C 695.45 296.25 735.5 296.25 735.5 296.25 C 779.15 296.25 784.1 310.65 784.1 348.9 C 784.1 348.9 795.35 348.9 795.35 348.9 C 795.35 348.9 795.35 230.1 795.35 230.1 C 795.35 230.1 784.1 230.1 784.1 230.1 C 784.1 268.35 779.15 282.3 735.5 282.3 C 735.5 282.3 695.45 282.3 695.45 282.3 C 695.45 282.3 695.45 174.75 695.45 174.75 C 695.45 159.9 696.35 156.75 717.5 156.75 C 717.5 156.75 775.1 156.75 775.1 156.75 C 843.95 156.75 855.65 181.5 862.85 244.05 C 862.85 244.05 874.1 244.05 874.1 244.05 C 874.1 244.05 861.5 143.25 861.5 143.25 C 861.5 143.25 609.5 143.25 609.5 143.25 C 609.5 143.25 609.5 156.75 609.5 156.75 C 609.5 156.75 619.85 156.75 619.85 156.75 C 654.5 156.75 655.4 161.7 655.4 177.9 C 655.4 177.9 655.4 412.8 655.4 412.8 C 655.4 429 654.5 433.95 619.85 433.95 C 619.85 433.95 609.5 433.95 609.5 433.95 C 609.5 433.95 609.5 447.9 609.5 447.9 C 609.5 447.9 867.8 447.9 867.8 447.9 C 867.8 447.9 886.7 332.25 886.7 332.25 Z " fill="rgb(255,255,255)"/><path d=" M 1022.15 173.4 C 1022.15 173.4 1083.8 83.4 1083.8 83.4 C 1093.25 69 1108.55 54.6 1148.6 54.15 C 1148.6 54.15 1148.6 40.65 1148.6 40.65 C 1148.6 40.65 1041.5 40.65 1041.5 40.65 C 1041.5 40.65 1041.5 54.15 1041.5 54.15 C 1059.5 54.6 1069.4 64.5 1069.4 74.85 C 1069.4 79.35 1068.5 80.25 1065.35 85.2 C 1065.35 85.2 1014.05 160.8 1014.05 160.8 C 1014.05 160.8 956.45 74.4 956.45 74.4 C 955.55 73.05 953.3 69.45 953.3 67.65 C 953.3 62.25 963.2 54.6 982.1 54.15 C 982.1 54.15 982.1 40.65 982.1 40.65 C 966.8 42 933.95 42 916.85 42 C 902.9 42 875 41.55 858.35 40.65 C 858.35 40.65 858.35 54.15 858.35 54.15 C 858.35 54.15 866.9 54.15 866.9 54.15 C 891.65 54.15 900.2 57.3 908.75 69.9 C 908.75 69.9 991.1 194.55 991.1 194.55 C 991.1 194.55 917.75 303 917.75 303 C 911.45 312 897.95 332.7 852.95 332.7 C 852.95 332.7 852.95 346.65 852.95 346.65 C 852.95 346.65 960.05 346.65 960.05 346.65 C 960.05 346.65 960.05 332.7 960.05 332.7 C 939.35 332.25 931.7 320.1 931.7 312 C 931.7 307.95 933.05 306.15 936.2 301.2 C 936.2 301.2 999.65 207.15 999.65 207.15 C 999.65 207.15 1070.75 314.25 1070.75 314.25 C 1071.65 316.05 1073 317.85 1073 319.2 C 1073 324.6 1063.1 332.25 1043.75 332.7 C 1043.75 332.7 1043.75 346.65 1043.75 346.65 C 1059.5 345.3 1092.35 345.3 1109 345.3 C 1127.9 345.3 1148.6 345.75 1167.5 346.65 C 1167.5 346.65 1167.5 332.7 1167.5 332.7 C 1167.5 332.7 1158.95 332.7 1158.95 332.7 C 1135.55 332.7 1126.1 330.45 1116.65 316.5 C 1116.65 316.5 1022.15 173.4 1022.15 173.4 Z " fill="rgb(255,255,255)"/></g></g></svg>